<svg width="128" height="56" viewBox="0 0 128 56" fill="none" xmlns="http://www.w3.org/2000/svg">
<path d="M86.3 23.84C87.0867 23.9867 87.7333 24.38 88.24 25.02C88.7467 25.66 89 26.3933 89 27.22C89 27.9667 88.8133 28.6267 88.44 29.2C88.08 29.76 87.5533 30.2 86.86 30.52C86.1667 30.84 85.3467 31 84.4 31H78.38V17.04H84.14C85.0867 17.04 85.9 17.1933 86.58 17.5C87.2733 17.8067 87.7933 18.2333 88.14 18.78C88.5 19.3267 88.68 19.9467 88.68 20.64C88.68 21.4533 88.46 22.1333 88.02 22.68C87.5933 23.2267 87.02 23.6133 86.3 23.84ZM81.18 22.8H83.74C84.4067 22.8 84.92 22.6533 85.28 22.36C85.64 22.0533 85.82 21.62 85.82 21.06C85.82 20.5 85.64 20.0667 85.28 19.76C84.92 19.4533 84.4067 19.3 83.74 19.3H81.18V22.8ZM84 28.72C84.68 28.72 85.2067 28.56 85.58 28.24C85.9667 27.92 86.16 27.4667 86.16 26.88C86.16 26.28 85.96 25.8133 85.56 25.48C85.16 25.1333 84.62 24.96 83.94 24.96H81.18V28.72H84ZM90.5116 25.42C90.5116 24.3 90.7316 23.3067 91.1716 22.44C91.6249 21.5733 92.2316 20.9067 92.9916 20.44C93.7649 19.9733 94.6249 19.74 95.5716 19.74C96.3982 19.74 97.1182 19.9067 97.7316 20.24C98.3582 20.5733 98.8582 20.9933 99.2316 21.5V19.92H102.052V31H99.2316V29.38C98.8716 29.9 98.3716 30.3333 97.7316 30.68C97.1049 31.0133 96.3782 31.18 95.5516 31.18C94.6182 31.18 93.7649 30.94 92.9916 30.46C92.2316 29.98 91.6249 29.3067 91.1716 28.44C90.7316 27.56 90.5116 26.5533 90.5116 25.42ZM99.2316 25.46C99.2316 24.78 99.0982 24.2 98.8316 23.72C98.5649 23.2267 98.2049 22.8533 97.7516 22.6C97.2982 22.3333 96.8116 22.2 96.2916 22.2C95.7716 22.2 95.2916 22.3267 94.8516 22.58C94.4116 22.8333 94.0516 23.2067 93.7716 23.7C93.5049 24.18 93.3716 24.7533 93.3716 25.42C93.3716 26.0867 93.5049 26.6733 93.7716 27.18C94.0516 27.6733 94.4116 28.0533 94.8516 28.32C95.3049 28.5867 95.7849 28.72 96.2916 28.72C96.8116 28.72 97.2982 28.5933 97.7516 28.34C98.2049 28.0733 98.5649 27.7 98.8316 27.22C99.0982 26.7267 99.2316 26.14 99.2316 25.46ZM104.066 25.46C104.066 24.3133 104.3 23.3133 104.766 22.46C105.233 21.5933 105.88 20.9267 106.706 20.46C107.533 19.98 108.48 19.74 109.546 19.74C110.92 19.74 112.053 20.0867 112.946 20.78C113.853 21.46 114.46 22.42 114.766 23.66H111.746C111.586 23.18 111.313 22.8067 110.926 22.54C110.553 22.26 110.086 22.12 109.526 22.12C108.726 22.12 108.093 22.4133 107.626 23C107.16 23.5733 106.926 24.3933 106.926 25.46C106.926 26.5133 107.16 27.3333 107.626 27.92C108.093 28.4933 108.726 28.78 109.526 28.78C110.66 28.78 111.4 28.2733 111.746 27.26H114.766C114.46 28.46 113.853 29.4133 112.946 30.12C112.04 30.8267 110.906 31.18 109.546 31.18C108.48 31.18 107.533 30.9467 106.706 30.48C105.88 30 105.233 29.3333 104.766 28.48C104.3 27.6133 104.066 26.6067 104.066 25.46ZM123.378 31L119.618 26.28V31H116.818V16.2H119.618V24.62L123.338 19.92H126.978L122.098 25.48L127.018 31H123.378Z" fill="#4D5C70"/>
<g filter="url(#filter0_d_181:5693)">
<rect x="52" y="48" width="48" height="48" rx="24" transform="rotate(-180 52 48)" fill="#253242"/>
</g>
<path d="M20.3124 24.7682L27.1006 31.6818C27.5172 32.1061 28.1926 32.1061 28.6091 31.6818C29.0257 31.2576 29.0257 30.5697 28.6091 30.1454L23.6418 25.0864L34.9333 25.0864C35.5224 25.0864 36 24.6 36 24C36 23.4 35.5224 22.9136 34.9333 22.9136L23.6418 22.9136L28.6091 17.8546C29.0257 17.4303 29.0257 16.7424 28.6091 16.3182C28.1926 15.8939 27.5172 15.8939 27.1006 16.3182L20.3124 23.2318C19.8959 23.6561 19.8959 24.3439 20.3124 24.7682Z" fill="#4D5C70"/>
<defs>
<filter id="filter0_d_181:5693" x="0" y="0" width="56" height="56" filterUnits="userSpaceOnUse" color-interpolation-filters="sRGB">
<feFlood flood-opacity="0" result="BackgroundImageFix"/>
<feColorMatrix in="SourceAlpha" type="matrix" values="0 0 0 0 0 0 0 0 0 0 0 0 0 0 0 0 0 0 127 0" result="hardAlpha"/>
<feOffset dy="4"/>
<feGaussianBlur stdDeviation="2"/>
<feComposite in2="hardAlpha" operator="out"/>
<feColorMatrix type="matrix" values="0 0 0 0 0 0 0 0 0 0 0 0 0 0 0 0 0 0 0.25 0"/>
<feBlend mode="normal" in2="BackgroundImageFix" result="effect1_dropShadow_181:5693"/>
<feBlend mode="normal" in="SourceGraphic" in2="effect1_dropShadow_181:5693" result="shape"/>
</filter>
</defs>
</svg>
