<svg width="30" height="30" viewBox="0 0 30 30" fill="none" xmlns="http://www.w3.org/2000/svg">
<path d="M14.9502 27.4584H3.73752C3.0498 27.4584 2.4917 26.9003 2.4917 26.2126V3.78732C2.4917 3.09961 3.04986 2.5415 3.73752 2.5415H14.9502C15.6391 2.5415 16.196 1.98463 16.196 1.29568C16.196 0.606736 15.6391 0.0497437 14.9502 0.0497437H3.73752C1.67689 0.0497437 0 1.7267 0 3.78732V26.2126C0 28.2732 1.67689 29.9501 3.73752 29.9501H14.9502C15.6391 29.9501 16.196 29.3932 16.196 28.7043C16.196 28.0153 15.6391 27.4584 14.9502 27.4584Z" fill="#313942"/>
<path d="M29.6287 14.113L22.0539 6.63791C21.5655 6.15451 20.7757 6.16078 20.2923 6.65039C19.8089 7.14 19.8139 7.92861 20.3048 8.41201L25.718 13.7542H11.2126C10.5236 13.7542 9.96674 14.3111 9.96674 15C9.96674 15.6889 10.5236 16.2459 11.2126 16.2459H25.718L20.3048 21.588C19.8139 22.0714 19.8102 22.8601 20.2923 23.3497C20.5365 23.5963 20.8579 23.7209 21.1794 23.7209C21.4958 23.7209 21.8122 23.6013 22.0539 23.3621L29.6287 15.887C29.8654 15.6528 29.9999 15.3338 29.9999 14.9999C29.9999 14.6662 29.8666 14.3485 29.6287 14.113Z" fill="#313942"/>
</svg>
