<svg width="125" height="30" viewBox="0 0 125 30" fill="none" xmlns="http://www.w3.org/2000/svg">
<path d="M59.18 19.78H63.78V22H56.38V8.04H59.18V19.78ZM70.4797 22.18C69.413 22.18 68.453 21.9467 67.5997 21.48C66.7464 21 66.073 20.3267 65.5797 19.46C65.0997 18.5933 64.8597 17.5933 64.8597 16.46C64.8597 15.3267 65.1064 14.3267 65.5997 13.46C66.1064 12.5933 66.793 11.9267 67.6597 11.46C68.5264 10.98 69.493 10.74 70.5597 10.74C71.6264 10.74 72.593 10.98 73.4597 11.46C74.3264 11.9267 75.0064 12.5933 75.4997 13.46C76.0064 14.3267 76.2597 15.3267 76.2597 16.46C76.2597 17.5933 75.9997 18.5933 75.4797 19.46C74.973 20.3267 74.2797 21 73.3997 21.48C72.533 21.9467 71.5597 22.18 70.4797 22.18ZM70.4797 19.74C70.9864 19.74 71.4597 19.62 71.8997 19.38C72.353 19.1267 72.713 18.7533 72.9797 18.26C73.2464 17.7667 73.3797 17.1667 73.3797 16.46C73.3797 15.4067 73.0997 14.6 72.5397 14.04C71.993 13.4667 71.3197 13.18 70.5197 13.18C69.7197 13.18 69.0464 13.4667 68.4997 14.04C67.9664 14.6 67.6997 15.4067 67.6997 16.46C67.6997 17.5133 67.9597 18.3267 68.4797 18.9C69.013 19.46 69.6797 19.74 70.4797 19.74ZM82.6536 10.74C83.4803 10.74 84.2069 10.9067 84.8336 11.24C85.4603 11.56 85.9536 11.98 86.3136 12.5V10.92H89.1336V22.08C89.1336 23.1067 88.9269 24.02 88.5136 24.82C88.1003 25.6333 87.4803 26.2733 86.6536 26.74C85.8269 27.22 84.8269 27.46 83.6536 27.46C82.0803 27.46 80.7869 27.0933 79.7736 26.36C78.7736 25.6267 78.2069 24.6267 78.0736 23.36H80.8536C81.0003 23.8667 81.3136 24.2667 81.7936 24.56C82.2869 24.8667 82.8803 25.02 83.5736 25.02C84.3869 25.02 85.0469 24.7733 85.5536 24.28C86.0603 23.8 86.3136 23.0667 86.3136 22.08V20.36C85.9536 20.88 85.4536 21.3133 84.8136 21.66C84.1869 22.0067 83.4669 22.18 82.6536 22.18C81.7203 22.18 80.8669 21.94 80.0936 21.46C79.3203 20.98 78.7069 20.3067 78.2536 19.44C77.8136 18.56 77.5936 17.5533 77.5936 16.42C77.5936 15.3 77.8136 14.3067 78.2536 13.44C78.7069 12.5733 79.3136 11.9067 80.0736 11.44C80.8469 10.9733 81.7069 10.74 82.6536 10.74ZM86.3136 16.46C86.3136 15.78 86.1803 15.2 85.9136 14.72C85.6469 14.2267 85.2869 13.8533 84.8336 13.6C84.3803 13.3333 83.8936 13.2 83.3736 13.2C82.8536 13.2 82.3736 13.3267 81.9336 13.58C81.4936 13.8333 81.1336 14.2067 80.8536 14.7C80.5869 15.18 80.4536 15.7533 80.4536 16.42C80.4536 17.0867 80.5869 17.6733 80.8536 18.18C81.1336 18.6733 81.4936 19.0533 81.9336 19.32C82.3869 19.5867 82.8669 19.72 83.3736 19.72C83.8936 19.72 84.3803 19.5933 84.8336 19.34C85.2869 19.0733 85.6469 18.7 85.9136 18.22C86.1803 17.7267 86.3136 17.14 86.3136 16.46ZM96.7883 22.18C95.7216 22.18 94.7616 21.9467 93.9083 21.48C93.0549 21 92.3816 20.3267 91.8883 19.46C91.4083 18.5933 91.1683 17.5933 91.1683 16.46C91.1683 15.3267 91.4149 14.3267 91.9083 13.46C92.4149 12.5933 93.1016 11.9267 93.9683 11.46C94.8349 10.98 95.8016 10.74 96.8683 10.74C97.9349 10.74 98.9016 10.98 99.7683 11.46C100.635 11.9267 101.315 12.5933 101.808 13.46C102.315 14.3267 102.568 15.3267 102.568 16.46C102.568 17.5933 102.308 18.5933 101.788 19.46C101.282 20.3267 100.588 21 99.7083 21.48C98.8416 21.9467 97.8683 22.18 96.7883 22.18ZM96.7883 19.74C97.2949 19.74 97.7683 19.62 98.2083 19.38C98.6616 19.1267 99.0216 18.7533 99.2883 18.26C99.5549 17.7667 99.6883 17.1667 99.6883 16.46C99.6883 15.4067 99.4083 14.6 98.8483 14.04C98.3016 13.4667 97.6283 13.18 96.8283 13.18C96.0283 13.18 95.3549 13.4667 94.8083 14.04C94.2749 14.6 94.0083 15.4067 94.0083 16.46C94.0083 17.5133 94.2683 18.3267 94.7883 18.9C95.3216 19.46 95.9883 19.74 96.7883 19.74ZM115.082 10.92V22H112.262V20.6C111.902 21.08 111.429 21.46 110.842 21.74C110.269 22.0067 109.642 22.14 108.962 22.14C108.096 22.14 107.329 21.96 106.662 21.6C105.996 21.2267 105.469 20.6867 105.082 19.98C104.709 19.26 104.522 18.4067 104.522 17.42V10.92H107.322V17.02C107.322 17.9 107.542 18.58 107.982 19.06C108.422 19.5267 109.022 19.76 109.782 19.76C110.556 19.76 111.162 19.5267 111.602 19.06C112.042 18.58 112.262 17.9 112.262 17.02V10.92H115.082ZM121.105 13.22V18.58C121.105 18.9533 121.192 19.2267 121.365 19.4C121.552 19.56 121.858 19.64 122.285 19.64H123.585V22H121.825C119.465 22 118.285 20.8533 118.285 18.56V13.22H116.965V10.92H118.285V8.18H121.105V10.92H123.585V13.22H121.105Z" fill="#313942"/>
<path d="M14.9502 27.4584H3.73752C3.0498 27.4584 2.4917 26.9003 2.4917 26.2126V3.78732C2.4917 3.09961 3.04986 2.5415 3.73752 2.5415H14.9502C15.6391 2.5415 16.196 1.98463 16.196 1.29568C16.196 0.606736 15.6391 0.0497437 14.9502 0.0497437H3.73752C1.67689 0.0497437 0 1.7267 0 3.78732V26.2126C0 28.2732 1.67689 29.9501 3.73752 29.9501H14.9502C15.6391 29.9501 16.196 29.3932 16.196 28.7043C16.196 28.0153 15.6391 27.4584 14.9502 27.4584Z" fill="#313942"/>
<path d="M29.6287 14.113L22.0539 6.63791C21.5655 6.15451 20.7757 6.16078 20.2923 6.65039C19.8089 7.14 19.8139 7.92861 20.3048 8.41201L25.718 13.7542H11.2126C10.5236 13.7542 9.96674 14.3111 9.96674 15C9.96674 15.6889 10.5236 16.2459 11.2126 16.2459H25.718L20.3048 21.588C19.8139 22.0714 19.8102 22.8601 20.2923 23.3497C20.5365 23.5963 20.8579 23.7209 21.1794 23.7209C21.4958 23.7209 21.8122 23.6013 22.0539 23.3621L29.6287 15.887C29.8654 15.6528 29.9999 15.3338 29.9999 14.9999C29.9999 14.6662 29.8666 14.3485 29.6287 14.113Z" fill="#313942"/>
</svg>
