<svg width="15" height="11" viewBox="0 0 15 11" fill="none" xmlns="http://www.w3.org/2000/svg">
<path d="M13.6816 0.361572H1.31836C0.591416 0.361572 0 0.952988 0 1.67993V9.32003C0 10.047 0.591416 10.6384 1.31836 10.6384H13.6816C14.4086 10.6384 15 10.047 15 9.32003V1.67993C15 0.952988 14.4086 0.361572 13.6816 0.361572ZM13.5096 1.24048L13.3336 1.38699L8.02307 5.80909C7.71996 6.06146 7.27998 6.06146 6.97693 5.80909L1.66638 1.38699L1.49042 1.24048H13.5096ZM0.878906 1.87499L5.20582 5.47801L0.878906 8.35769V1.87499ZM13.6816 9.75948H1.31836C1.10602 9.75948 0.928418 9.60808 0.887725 9.4076L5.91053 6.0648L6.41455 6.4845C6.72902 6.74636 7.11454 6.87729 7.50003 6.87729C7.88552 6.87729 8.27101 6.74636 8.58551 6.4845L9.08953 6.0648L14.1123 9.40757C14.0716 9.60811 13.894 9.75948 13.6816 9.75948ZM14.1211 8.35769L9.79418 5.47804L14.1211 1.87499V8.35769Z" fill="#4D5C70"/>
</svg>
