<svg width="12" height="14" viewBox="0 0 12 14" fill="none" xmlns="http://www.w3.org/2000/svg">
<path d="M11.3103 11.1413C11.2691 11.1146 10.9594 10.8976 10.6493 10.2412C10.0797 9.03585 9.96018 7.33786 9.96018 6.12568C9.96018 6.12041 9.96007 6.11518 9.95988 6.10993C9.95367 4.50789 8.99437 3.12687 7.6216 2.50723V1.55958C7.6216 0.699617 6.92313 0 6.0646 0H5.93556C5.07702 0 4.37855 0.699617 4.37855 1.55958V2.50718C3.00119 3.12881 2.03998 4.51689 2.03998 6.12568C2.03998 7.33786 1.92043 9.03582 1.35089 10.2412C1.04078 10.8976 0.73106 11.1146 0.689881 11.1413C0.516467 11.2215 0.430963 11.4069 0.470857 11.5948C0.511135 11.7846 0.688486 11.9154 0.882162 11.9154H3.88853C3.90531 13.0677 4.84578 14 6.00009 14C7.15441 14 8.09487 13.0677 8.11166 11.9154H11.118C11.3117 11.9154 11.489 11.7846 11.5293 11.5948C11.5692 11.4069 11.4837 11.2215 11.3103 11.1413ZM5.19889 1.55958C5.19889 1.15268 5.52937 0.821652 5.93559 0.821652H6.06462C6.47084 0.821652 6.80132 1.15268 6.80132 1.55958V2.2409C6.54243 2.18739 6.27443 2.15923 5.99998 2.15923C5.72562 2.15923 5.4577 2.18736 5.19892 2.24082V1.55958H5.19889ZM6.00009 13.1783C5.2981 13.1783 4.72549 12.6146 4.70884 11.9154H7.29132C7.27469 12.6146 6.70209 13.1783 6.00009 13.1783ZM7.65165 11.0937C7.65157 11.0937 1.81691 11.0937 1.81691 11.0937C1.88787 10.9831 1.96008 10.8579 2.03186 10.7164C2.58158 9.63241 2.86032 8.08787 2.86032 6.12568C2.86032 4.39162 4.26877 2.98088 5.99995 2.98088C7.73114 2.98088 9.13959 4.39162 9.13959 6.12705C9.13959 6.13211 9.13967 6.13714 9.13986 6.14217C9.14142 8.09648 9.42014 9.63547 9.96833 10.7164C10.0401 10.8579 10.1123 10.9831 10.1833 11.0937H7.65165Z" fill="#4D5C70"/>
</svg>
