<svg width="75" height="75" viewBox="0 0 75 75" fill="none" xmlns="http://www.w3.org/2000/svg">
<path d="M32.9082 0C31.6402 0 30.6122 1.02792 30.6122 2.29592V30.6122H2.29592C1.02792 30.6122 0 31.6402 0 32.9082V42.0918C0 43.3598 1.02792 44.3878 2.29592 44.3878H30.6122V72.7041C30.6122 73.9721 31.6402 75 32.9082 75H42.0918C43.3598 75 44.3878 73.9721 44.3878 72.7041V44.3878H72.7041C73.9721 44.3878 75 43.3598 75 42.0918V32.9082C75 31.6402 73.9721 30.6122 72.7041 30.6122H44.3878V2.29592C44.3878 1.02792 43.3598 0 42.0918 0H32.9082Z" fill="url(#paint0_linear_181:116)"/>
<defs>
<linearGradient id="paint0_linear_181:116" x1="37.5" y1="0" x2="37.5" y2="75" gradientUnits="userSpaceOnUse">
<stop stop-color="#35DF90"/>
<stop offset="1" stop-color="#2EBD7A"/>
</linearGradient>
</defs>
</svg>
