<svg width="10" height="15" viewBox="0 0 10 15" fill="none" xmlns="http://www.w3.org/2000/svg">
<path d="M5.22884 11.9462H4.54558C4.0644 11.9462 3.67334 12.3373 3.67334 12.8185V13.7619C3.67334 14.2431 4.0644 14.6342 4.54558 14.6342H5.22884C5.71004 14.6342 6.10108 14.2431 6.10108 13.7619V12.8185C6.10108 12.3358 5.71004 11.9462 5.22884 11.9462Z" fill="#4D5C70"/>
<path d="M0.411121 4.64258L1.67151 4.79958C2.07129 4.84901 2.45072 4.61932 2.59464 4.2428C2.77636 3.76743 3.02931 3.39236 3.35349 3.11906C3.81289 2.73237 4.38419 2.53757 5.06745 2.53757C5.77542 2.53757 6.33947 2.72364 6.75815 3.09435C7.17682 3.4665 7.38471 3.91135 7.38471 4.43324C7.38471 4.80831 7.26696 5.15139 7.03145 5.46249C6.87881 5.6602 6.40925 6.07597 5.62568 6.71125C4.84067 7.34653 4.31879 7.91929 4.05711 8.4281C3.78963 8.94855 3.69659 9.52567 3.67333 10.1043C3.65299 10.6 4.04839 11.0129 4.54557 11.0129H5.2579C5.71147 11.0129 6.08653 10.6654 6.12724 10.2148C6.15631 9.89059 6.2101 9.64491 6.29153 9.47773C6.42816 9.19133 6.78142 8.81336 7.34838 8.34236C8.44594 7.43376 9.16118 6.71561 9.49701 6.18645C9.83137 5.65874 10 5.09905 10 4.50738C10 3.43888 9.54498 2.50122 8.63348 1.69585C7.72344 0.890479 6.49649 0.487793 4.95552 0.487793C3.49016 0.487793 2.30827 0.884664 1.40695 1.67986C0.639373 2.3573 0.172723 3.15977 0.00845019 4.0858C-0.0424452 4.35619 0.14218 4.60914 0.411121 4.64258Z" fill="#4D5C70"/>
</svg>
