<svg width="120" height="106" viewBox="0 0 120 106" fill="none" xmlns="http://www.w3.org/2000/svg">
<path d="M118.242 102.459H111.47C113.036 100.305 113.682 97.5732 113.183 94.8613C112.913 93.3985 112.326 92.0536 111.497 90.8959C112.982 90.5511 114.405 89.8736 115.652 88.8689C116.358 88.3001 116.771 87.4512 116.786 86.5414C116.8 85.6307 116.415 84.7688 115.727 84.1771L99.4574 70.1726C98.2599 69.1411 97.3618 67.8018 96.861 66.2975L93.0597 54.8694C93.0588 54.8657 93.0569 54.862 93.056 54.8583L89.6329 44.5704C88.0811 39.9053 84.3713 36.2404 79.7095 34.7664L67.9211 31.0388C71.1218 28.7666 73.2184 25.0178 73.2184 20.7832V12.5453C73.2184 5.62741 67.6282 0 60.7581 0C53.8879 0 48.2977 5.62741 48.2977 12.5453V20.7841C48.2977 24.8233 50.2057 28.421 53.1601 30.7162C52.8543 30.801 52.5494 30.8904 52.2455 30.9863L40.2905 34.7664C35.6287 36.2404 31.9189 39.9053 30.3671 44.5704L23.1381 66.2975C22.6373 67.8018 21.7401 69.1421 20.5426 70.1726L4.27277 84.178C3.58521 84.7698 3.19977 85.6307 3.21442 86.5414C3.22906 87.4521 3.64197 88.3001 4.34784 88.8689C5.65155 89.9197 7.14661 90.6129 8.70483 90.941C7.23358 93.6667 6.95435 96.9906 8.08868 100.004C8.43292 100.916 8.88611 101.737 9.43176 102.46H1.75781C0.786438 102.46 0 103.252 0 104.23C0 105.207 0.786438 106 1.75781 106H106.967H106.968H106.97H118.242C119.214 106 120 105.207 120 104.23C120 103.252 119.213 102.459 118.242 102.459ZM78.2382 61.1733L84.4464 76.7264C84.4812 76.813 84.5224 76.8969 84.57 76.9771C85.6686 78.8188 87.2333 80.3443 89.0964 81.3905L91.1545 82.5455L78.2382 78.5745V61.1733ZM97.1722 72.8632L112.971 86.4621C110.853 87.8872 108.126 88.0135 105.869 86.7506L90.8084 78.2989C89.5203 77.5763 88.4317 76.5301 87.6535 75.27L82.1201 61.4066L90.3268 57.7997L93.5275 67.4211C94.2307 69.5338 95.4913 71.4151 97.1722 72.8632ZM51.8134 20.7841V12.5453C51.8134 7.57972 55.8261 3.5396 60.7581 3.5396C65.69 3.5396 69.7028 7.57972 69.7028 12.5453V20.7841C69.7028 25.7497 65.69 29.7898 60.7581 29.7898C55.8261 29.7898 51.8134 25.7497 51.8134 20.7841ZM41.3434 38.1429L53.2993 34.3636C57.6828 32.9773 62.3172 32.9773 66.7007 34.3636L78.6566 38.1429C82.2473 39.2785 85.1047 42.101 86.2994 45.695L89.2062 54.4306L80.8081 58.1204L78.111 51.3639C77.7969 50.5776 76.9739 50.125 76.1462 50.2863C75.3195 50.4476 74.7226 51.1767 74.7226 52.0238V78.1146H45.2774V52.0238C45.2774 51.1767 44.6805 50.4476 43.8538 50.2863C43.0289 50.125 42.2031 50.5776 41.889 51.3639L39.5544 57.2116L31.2589 53.035L33.7006 45.695C34.8953 42.101 37.7527 39.2785 41.3434 38.1429ZM22.8268 72.8632C24.5087 71.4151 25.7693 69.5338 26.4716 67.4211L30.13 56.4244L38.2388 60.5069L36.9608 63.7082C36.5991 64.6152 37.0358 65.6458 37.9367 66.0108C38.8367 66.3749 39.8611 65.9352 40.2228 65.0282L41.7618 61.1743V78.569L29.0991 82.4036L30.9027 81.3905C32.7658 80.3453 34.3314 78.8197 35.43 76.978C35.4776 76.8978 35.5188 76.814 35.5536 76.7264L36.8674 73.4338C37.2299 72.5268 36.7932 71.4963 35.8923 71.1322C34.9915 70.7671 33.9679 71.2068 33.6053 72.1138L32.3456 75.27C31.5674 76.531 30.4797 77.5763 29.1916 78.2989L14.133 86.7497C11.8744 88.0135 9.14795 87.8872 7.0285 86.4621L22.8268 72.8632ZM16.7999 102.459H16.7935C14.2392 102.459 12.2653 101.107 11.3763 98.7484C10.3711 96.079 11.0596 92.932 13.0435 90.9604L43.7778 81.6542H76.2186L105.396 90.6249C107.673 91.3245 109.292 93.1496 109.726 95.5066C110.16 97.8635 109.299 100.151 107.422 101.626L106.363 102.46H69.2422C69.0152 101.22 68.4677 99.5697 67.1722 98.1013L70.6741 97.9068C71.6437 97.8534 72.3862 97.0183 72.3322 96.0421C72.2791 95.0669 71.4496 94.3202 70.481 94.3728L60.954 94.9028C60.5511 94.83 60.1309 94.7691 59.6896 94.724L32.5781 91.8729C31.6058 91.7706 30.748 92.4776 30.6473 93.4492C30.5466 94.4216 31.2479 95.2918 32.2128 95.3932L59.3262 98.2442C59.7363 98.2866 60.1218 98.3447 60.4825 98.4147C60.4898 98.4166 60.498 98.4175 60.5054 98.4193C64.0146 99.1125 65.2487 101.035 65.6744 102.459H16.7999Z" fill="#5E6D7E"/>
</svg>
